:SAMPLES-PER-SECOND 30
:FULLY-SPECIFIED
:DEGREES
199
root  -27.65 34.7345 6.92251 -168.233 60.1891 179.784
RightUpLeg  -12.431 -17.1224 -0.538505
RightLeg  4.44087 -2.84511 -0.0364127
RightFoot  8.49184 0.0560379 -0.255045
RightToes  -27.4892 -0.128968 -0.231739
Spine  -0.279035 0.363992 -0.392159
Spine1  -0.637206 0.851271 -0.174551
HEad  -30.7267 2.37285 -2.22904
LeftShoulder1  -1.94126e-019 -3.10601e-018 -2.51263e-017
LeftArm  -12.026 19.9375 -80.5681
LeftForeArm  32.4405 -15.0019 -2.44666
LeftHand  -0.408022 -1.53147 7.0107
RightShoulder  -4.96962e-017 0 -2.36833e-017
RightArm  -24.5295 -16.7271 76.4749
RightForeArm  51.2719 17.1059 1.22222
RightHand  -0.3383 -1.43393 -9.54918
LeftUpLeg  -11.5128 2.09055 3.26193
LeftLeg  3.20081 13.0077 -0.108708
LeftFoot  9.60912 -0.177508 2.35185
LeftToes  -24.3706 1.49739e-006 1.00523e-007
200
root  -27.7632 34.7136 6.99577 -167.73 60.5313 179.791
RightUpLeg  -13.297 -17.0218 -0.320398
RightLeg  4.57941 -2.58875 -0.0393045
RightFoot  8.55852 0.0539351 -0.222567
RightToes  -27.454 -0.128769 -0.231226
Spine  -0.208063 0.451799 -0.287853
Spine1  -0.498527 1.03139 0.0132373
HEad  -30.2849 2.97669 -3.04318
LeftShoulder1  -1.94126e-019 -3.10601e-018 -2.51263e-017
LeftArm  -13.9077 19.8602 -80.9683
LeftForeArm  32.4671 -14.123 -2.31921
LeftHand  -0.420288 -1.39468 7.3514
RightShoulder  -4.96962e-017 0 -2.36833e-017
RightArm  -24.5035 -16.9956 76.3399
RightForeArm  51.5642 16.6248 1.16643
RightHand  -0.339065 -1.41484 -9.64649
LeftUpLeg  -12.3892 2.41077 3.22092
LeftLeg  3.67051 13.0152 -0.00305139
LeftFoot  9.53369 -0.175312 2.33223
LeftToes  -24.6287 1.49739e-006 1.00523e-007
201
root  -27.8674 34.6921 7.055 -167.288 60.77 179.702
RightUpLeg  -14.1543 -16.9982 -0.154228
RightLeg  4.72871 -2.35761 -0.0418492
RightFoot  8.60559 0.0520291 -0.192986
RightToes  -27.4918 -0.128618 -0.230815
Spine  -0.143995 0.496904 -0.172909
Spine1  -0.372055 1.12665 0.215845
HEad  -30.516 3.60356 -4.06631
LeftShoulder1  -1.94126e-019 -3.10601e-018 -2.51263e-017
LeftArm  -15.484 20.0031 -81.365
LeftForeArm  32.5283 -14.0606 -2.30709
LeftHand  -0.41853 -1.52288 7.19551
RightShoulder  -4.96962e-017 0 -2.36833e-017
RightArm  -24.7915 -17.1363 76.1826
RightForeArm  52.4151 15.9014 1.13652
RightHand  -0.343594 -1.26186 -9.56726
LeftUpLeg  -13.2923 2.76178 3.11233
LeftLeg  4.15412 12.8944 0.104828
LeftFoot  9.43416 -0.170993 2.28451
LeftToes  -24.8243 1.49739e-006 1.00523e-007
202
root  -27.9556 34.6702 7.10212 -166.871 60.9137 179.64
RightUpLeg  -14.9433 -17.039 0.00963606
RightLeg  4.91979 -2.17124 -0.0456955
RightFoot  8.63576 0.0505619 -0.169757
RightToes  -27.5778 -0.128517 -0.230519
Spine  -0.105681 0.484836 -0.0612563
Spine1  -0.295711 1.1122 0.403341
HEad  -31.0118 4.44678 -4.98865
LeftShoulder1  -1.94126e-019 -3.10601e-018 -2.51263e-017
LeftArm  -16.3968 21.1975 -81.5234
LeftForeArm  31.9262 -16.4086 -2.57026
LeftHand  -0.41136 -1.81389 6.81114
RightShoulder  -4.96962e-017 0 -2.36833e-017
RightArm  -25.6738 -17.1262 76.041
RightForeArm  53.7794 14.862 1.18655
RightHand  -0.342065 -1.27314 -9.60137
LeftUpLeg  -14.1216 3.18189 3.00391
LeftLeg  4.61535 12.582 0.202738
LeftFoot  9.34534 -0.164531 2.20624
LeftToes  -25.1171 1.49739e-006 1.00523e-007
203
root  -28.0108 34.6482 7.1348 -166.626 61.0672 179.605
RightUpLeg  -15.4863 -16.9521 0.0932842
RightLeg  5.17284 -2.08271 -0.0529728
RightFoot  8.58974 0.0498617 -0.157565
RightToes  -27.5649 -0.128468 -0.230353
Spine  -0.0460978 0.411149 0.0103658
Spine1  -0.178507 0.971198 0.516622
HEad  -31.597 5.67624 -5.65661
LeftShoulder1  -1.94126e-019 -3.10601e-018 -2.51263e-017
LeftArm  -16.6564 23.4849 -81.3165
LeftForeArm  29.836 -21.2101 -3.10442
LeftHand  -0.388596 -1.95267 6.3324
RightShoulder  -4.96962e-017 0 -2.36833e-017
RightArm  -27.0174 -17.0261 76.0151
RightForeArm  55.205 13.8169 1.29315
RightHand  -0.333526 -1.49571 -9.81354
LeftUpLeg  -14.7123 3.63415 2.91187
LeftLeg  5.09232 12.2803 0.299361
LeftFoot  9.19739 -0.157405 2.11827
LeftToes  -25.2996 1.49739e-006 1.00523e-007
204
root  -28.0411 34.6358 7.1569 -166.461 61.313 179.614
RightUpLeg  -15.8774 -16.7937 0.149921
RightLeg  5.42758 -1.98789 -0.0593408
RightFoot  8.56599 0.0491509 -0.145298
RightToes  -27.5798 -0.128471 -0.230328
Spine  0.00803948 0.388159 0.0593076
Spine1  -0.0690272 0.921713 0.60431
HEad  -32.03 6.75255 -5.93721
LeftShoulder1  -1.94126e-019 -3.10601e-018 -2.51263e-017
LeftArm  -17.2193 26.299 -80.8577
LeftForeArm  28.276 -26.8342 -4.19972
LeftHand  -0.372526 -2.01798 6.02922
RightShoulder  -4.96962e-017 0 -2.36833e-017
RightArm  -28.4298 -17.0748 75.9645
RightForeArm  56.1296 13.0306 1.38244
RightHand  -0.324909 -1.67357 -9.99197
LeftUpLeg  -15.0503 3.92074 2.8659
LeftLeg  5.41867 12.235 0.367437
LeftFoot  9.08183 -0.152586 2.08262
LeftToes  -25.2805 1.49739e-006 1.00523e-007
205
root  -28.0458 34.629 7.17147 -166.307 61.6841 179.714
RightUpLeg  -16.0758 -16.5639 0.219846
RightLeg  5.52295 -1.8693 -0.0588505
RightFoot  8.5926 0.048325 -0.131454
RightToes  -27.552 -0.128529 -0.23046
Spine  0.0498556 0.459986 0.0896811
Spine1  0.0193333 1.05545 0.669805
HEad  -32.1828 7.47668 -5.98667
LeftShoulder1  -1.94126e-019 -3.10601e-018 -2.51263e-017
LeftArm  -16.995 28.7988 -80.1302
LeftForeArm  27.5313 -31.642 -5.34067
LeftHand  -0.379972 -2.01615 6.14749
RightShoulder  -4.96962e-017 0 -2.36833e-017
RightArm  -29.1141 -17.4138 75.8703
RightForeArm  56.2161 12.7719 1.41157
RightHand  -0.318783 -1.70365 -9.8756
LeftUpLeg  -15.1743 4.33624 2.8548
LeftLeg  5.55152 12.2677 0.396643
LeftFoot  9.07606 -0.151372 2.08481
LeftToes  -25.6365 1.49739e-006 1.00523e-007
206
root  -28.0389 34.6276 7.17216 -166.255 62.0146 179.751
RightUpLeg  -16.1742 -16.3295 0.219052
RightLeg  5.60508 -1.77858 -0.058493
RightFoot  8.599 0.0476942 -0.120465
RightToes  -27.6067 -0.128642 -0.230761
Spine  0.0388039 0.564602 0.0899697
Spine1  0.00238743 1.25352 0.682809
HEad  -31.933 7.9453 -5.93118
LeftShoulder1  -1.94126e-019 -3.10601e-018 -2.51263e-017
LeftArm  -16.1095 30.6348 -79.2
LeftForeArm  27.8416 -34.7447 -6.09811
LeftHand  -0.40207 -2.03831 6.47667
RightShoulder  -4.96962e-017 0 -2.36833e-017
RightArm  -28.9511 -17.9956 75.7851
RightForeArm  56.0839 12.8704 1.40161
RightHand  -0.314783 -1.7763 -9.93636
LeftUpLeg  -15.1011 4.04771 2.91386
LeftLeg  5.58821 12.8337 0.422831
LeftFoot  8.93722 -0.15464 2.1456
LeftToes  -25.0725 1.49739e-006 1.00523e-007
207
root  -28.0153 34.6266 7.15616 -166.286 62.2603 179.779
RightUpLeg  -16.1639 -16.1347 0.178401
RightLeg  5.72719 -1.74445 -0.0610645
RightFoot  8.54015 0.0474519 -0.115094
RightToes  -27.6438 -0.128813 -0.231246
Spine  -0.0117227 0.668752 0.0767844
Spine1  -0.0940932 1.45293 0.667479
HEad  -31.6307 8.37222 -6.08882
LeftShoulder1  -1.94126e-019 -3.10601e-018 -2.51263e-017
LeftArm  -15.267 31.5878 -78.2922
LeftForeArm  28.1619 -35.677 -6.32389
LeftHand  -0.408421 -2.08688 6.53693
RightShoulder  -4.96962e-017 0 -2.36833e-017
RightArm  -28.57 -18.6302 75.7204
RightForeArm  55.8703 13.0951 1.37711
RightHand  -0.30996 -1.75233 -10.0363
LeftUpLeg  -14.9913 4.26148 2.88808
LeftLeg  5.5866 12.9334 0.425705
LeftFoot  8.92763 -0.155061 2.15877
LeftToes  -25.3186 1.49739e-006 1.00523e-007
208
root  -27.9819 34.6259 7.12458 -166.402 62.3787 179.74
RightUpLeg  -16.0725 -15.8379 0.0504152
RightLeg  5.87053 -1.92018 -0.0721138
RightFoot  8.41342 0.0490558 -0.136165
RightToes  -27.5748 -0.129043 -0.231927
Spine  -0.0894106 0.712455 0.0564182
Spine1  -0.24634 1.53593 0.634904
HEad  -31.682 8.97182 -6.51403
LeftShoulder1  -1.94126e-019 -3.10601e-018 -2.51263e-017
LeftArm  -15.0718 31.6198 -77.678
LeftForeArm  27.9483 -34.2106 -5.95341
LeftHand  -0.40325 -2.18477 6.3803
RightShoulder  -4.96962e-017 0 -2.36833e-017
RightArm  -28.587 -19.0621 75.7246
RightForeArm  55.5186 13.2172 1.36586
RightHand  -0.30744 -1.89005 -10.0775
LeftUpLeg  -14.8032 4.2193 2.86339
LeftLeg  5.57239 13.0644 0.426738
LeftFoot  8.83731 -0.154384 2.15922
LeftToes  -25.1503 1.49739e-006 1.00523e-007
209
root  -27.9396 34.626 7.08088 -166.689 62.2952 179.633
RightUpLeg  -15.7992 -15.6172 -0.148308
RightLeg  5.98325 -2.23917 -0.0886552
RightFoot  8.2625 0.0518496 -0.174301
RightToes  -27.3674 -0.129333 -0.232819
Spine  -0.154144 0.657804 0.0327471
Spine1  -0.37515 1.42814 0.590321
HEad  -32.1009 9.72007 -7.16832
LeftShoulder1  -1.94126e-019 -3.10601e-018 -2.51263e-017
LeftArm  -15.4061 30.4465 -77.4745
LeftForeArm  27.4159 -29.9374 -4.94131
LeftHand  -0.399842 -2.07955 6.4093
RightShoulder  -4.96962e-017 0 -2.36833e-017
RightArm  -29.0227 -19.2872 75.8148
RightForeArm  55.3908 13.3058 1.35633
RightHand  -0.307759 -1.92243 -10.1011
LeftUpLeg  -14.5177 4.01924 2.82954
LeftLeg  5.57596 13.1374 0.429897
LeftFoot  8.70751 -0.151754 2.14137
LeftToes  -24.7832 1.49739e-006 1.00523e-007
210
root  -27.8881 34.6279 7.02504 -167.041 62.0373 179.55
RightUpLeg  -15.3527 -15.7714 -0.31787
RightLeg  5.98174 -2.36165 -0.0934929
RightFoot  8.19872 0.0528623 -0.187035
RightToes  -27.5311 -0.129685 -0.233935
Spine  -0.209468 0.580854 0.0183047
Spine1  -0.485504 1.27635 0.565718
HEad  -32.9053 10.558 -8.02681
LeftShoulder1  -1.94126e-019 -3.10601e-018 -2.51263e-017
LeftArm  -16.2194 27.9887 -77.7346
LeftForeArm  27.2808 -22.7944 -3.39639
LeftHand  -0.407009 -1.85571 6.70518
RightShoulder  -4.96962e-017 0 -2.36833e-017
RightArm  -29.3705 -19.4162 75.8837
RightForeArm  55.2911 13.4086 1.34452
RightHand  -0.316433 -1.78824 -10.0217
LeftUpLeg  -14.1562 3.78727 2.80548
LeftLeg  5.5539 13.1155 0.424183
LeftFoot  8.62109 -0.147567 2.11912
LeftToes  -24.6927 1.49739e-006 1.00523e-007
211
root  -27.8341 34.6126 6.95601 -167.522 61.6941 179.504
RightUpLeg  -14.8644 -16.0338 -0.529727
RightLeg  6.29176 -2.4566 -0.110584
RightFoot  7.95575 0.0526404 -0.182174
RightToes  -27.6476 -0.1301 -0.235288
Spine  -0.236007 0.527345 -0.0199221
Spine1  -0.541809 1.17584 0.508274
HEad  -33.8694 11.5025 -8.8354
LeftShoulder1  -1.94126e-019 -3.10601e-018 -2.51263e-017
LeftArm  -18.6677 24.4634 -78.2726
LeftForeArm  30.1159 -13.4967 -2.17089
LeftHand  -0.426594 -1.29093 7.56703
RightShoulder  -4.96962e-017 0 -2.36833e-017
RightArm  -29.0165 -19.5601 75.9239
RightForeArm  54.9749 13.6532 1.31725
RightHand  -0.320479 -1.71727 -9.9648
LeftUpLeg  -13.8167 3.42882 2.80941
LeftLeg  5.92996 13.1016 0.509036
LeftFoot  8.31162 -0.137271 2.05061
LeftToes  -24.4931 1.49739e-006 1.00523e-007
